<?xml version="1.0" encoding="iso-8859-1"?>
<svg width="500" height="500" viewBox="0 0 500 500" fill="none" xmlns="http://www.w3.org/2000/svg">
	<rect width="500" height="500" fill="#D9D9D9"/>
	<path d="M15 45C15 28.4315 28.4315 15 45 15H455C471.569 15 485 28.4315 485 45V455C485 471.569 471.569 485 455 485H45C28.4315 485 15 471.569 15 455V45Z" fill="#2B2B2B"/>
	<circle cx="240" cy="60" r="30" fill="#00FF15"/>
	<circle cx="150" cy="60" r="30" fill="#FFFF00"/>
	<circle cx="60" cy="60" r="30" fill="#FF0000"/>
	<path d="M93.0664 277.332V252.332L193.066 208.298V237.062L124.6 264.548L125.524 263.057V266.608L124.6 265.116L193.066 292.602V321.366L93.0664 277.332ZM286.461 170.727L239.586 344.875H213.521L260.396 170.727H286.461ZM406.934 277.332L306.934 321.366V292.602L375.4 265.116L374.476 266.608V263.057L375.4 264.548L306.934 237.062V208.298L406.934 252.332V277.332Z" fill="white"/>
</svg>